<svg xmlns="http://www.w3.org/2000/svg" viewBox="0 0 104.34 111.59"><defs><style>.cls-1{fill:#252a5f;}.cls-2{fill:#fff;}.cls-3{fill:#fefefe;}</style></defs><title>Asset 14</title><g id="Layer_2" data-name="Layer 2"><g id="Main_Landing_Page" data-name="Main Landing Page"><path class="cls-1" d="M53.14,79.48a43.76,43.76,0,0,1-18.31-3.89,75.74,75.74,0,0,1-16-9.79A96.08,96.08,0,0,1,4,51.14a13.85,13.85,0,0,1-1.52-2.22,4.83,4.83,0,0,1,0-4.81,13.7,13.7,0,0,1,1.52-2.23A98.67,98.67,0,0,1,20.31,26a5,5,0,0,1,.55-.39.55.55,0,0,1,.72.13.58.58,0,0,1-.07.73,3.1,3.1,0,0,1-.34.27A97.64,97.64,0,0,0,4.85,42.51a12.83,12.83,0,0,0-1.43,2.06,3.73,3.73,0,0,0,0,3.75,11.3,11.3,0,0,0,1.18,1.79A88.35,88.35,0,0,0,32.39,73.2,46.19,46.19,0,0,0,45.9,77.82a38.67,38.67,0,0,0,9.55.45,51.47,51.47,0,0,0,18-5,68,68,0,0,0,17-11.57,105.87,105.87,0,0,0,12.06-13.16,3.32,3.32,0,0,0,0-4.3A95.82,95.82,0,0,0,88.58,29.81c-.16-.13-.32-.25-.47-.39a.55.55,0,1,1,.73-.83,3.11,3.11,0,0,1,.28.23,96.18,96.18,0,0,1,14.21,14.74,4.42,4.42,0,0,1,.08,5.52A99,99,0,0,1,86.86,66.14,64.17,64.17,0,0,1,67.93,76.69a52.61,52.61,0,0,1-9.32,2.36A34.59,34.59,0,0,1,53.14,79.48Z"/><path class="cls-1" d="M9.09,85.35h6.27a7.75,7.75,0,0,1,.12,15.5c-2.33.07-2.33.09-4.36-1L7.06,97.69c-.61-.32-.78-.58-.67-1s.48-.62,1.08-.62c2.5,0,5,0,7.5,0a2.81,2.81,0,0,0,2.74-2,3,3,0,0,0-2.79-3.93c-4.08,0-8.15,0-12.23,0a2.75,2.75,0,0,1-1.78-.55A2.34,2.34,0,0,1,.1,87.08a2.46,2.46,0,0,1,2.11-1.72c.35,0,.7,0,1,0H9.09Z"/><path class="cls-1" d="M39.09,54.39H33.68c-.92,0-1.23-.24-1.5-1.12a22,22,0,0,1-.95-9A22.75,22.75,0,0,1,34,35.82a1.36,1.36,0,0,1,1-.71,1.1,1.1,0,0,1,.94.46,3,3,0,0,1,.33.51c3.11,5.38,6.2,10.78,9.35,16.15.76,1.31.15,2.23-1.27,2.17C42.57,54.33,40.83,54.39,39.09,54.39Z"/><path class="cls-1" d="M0,103.75V98.41a2.21,2.21,0,0,1,.85-1.76,1.38,1.38,0,0,1,1.75-.18c1.44.76,2.88,1.54,4.33,2.3,5,2.59,9.79,5.5,14.68,8.28a2.33,2.33,0,0,1,1.29,2.26,2.49,2.49,0,0,1-3.41,2.11,5.08,5.08,0,0,1-.66-.33l-7.22-4.16a1.79,1.79,0,0,0-1-.27q-2.52,0-5,0c-.66,0-.55,0-.55.58s0,1.27,0,1.9a2.47,2.47,0,0,1-2.54,2.44A2.43,2.43,0,0,1,0,109.22c0-1.82,0-3.64,0-5.47Z"/><path class="cls-1" d="M45,55.87h9.34a3.09,3.09,0,0,1,.43,0,1.13,1.13,0,0,1,1,1.63,2.32,2.32,0,0,1-.2.38l-5.34,9.25a1.3,1.3,0,0,1-1.73.75,21.87,21.87,0,0,1-14.16-10c-.08-.13-.16-.28-.24-.42a1.21,1.21,0,0,1,0-1.07,1.27,1.27,0,0,1,1-.55H45Z"/><path class="cls-1" d="M53.91,68.29h-.67a1.13,1.13,0,0,1-1.05-1.7c.06-.13.14-.25.21-.37,3.11-5.4,6.25-10.79,9.33-16.21.68-1.18,1.75-1.24,2.46,0,1.68,3,3.44,6,5.16,9,.5.86.47,1.2-.17,1.92a21.44,21.44,0,0,1-13,7.11A20,20,0,0,1,53.91,68.29Z"/><path class="cls-1" d="M60.91,37.16c-3.29,0-6.59,0-9.88,0-1,0-1.43-.62-.89-1.52,1.91-3.22,3.75-6.48,5.62-9.72.46-.8.69-.9,1.6-.69A21.59,21.59,0,0,1,71.72,35.67l.06.1c.55.67.1,1.42-.8,1.41C67.62,37.13,64.27,37.16,60.91,37.16Z"/><path class="cls-1" d="M66.52,38.63h5.71c.85,0,1,.12,1.27.93a21.43,21.43,0,0,1-2,18.18c-.38.65-.9.63-1.3-.06q-2.39-4.11-4.75-8.23C63.66,46.31,61.86,43.15,60,40c-.53-.9-.25-1.43.81-1.4C62.71,38.67,64.62,38.63,66.52,38.63Z"/><path class="cls-1" d="M72.62,17.76v-5.4a1.35,1.35,0,0,1,1.31-1.54c1.64-.28,3.27-.52,4.91-.78l5.81-.93A3.85,3.85,0,0,1,85.14,9a1.31,1.31,0,0,1,1.56.88q1.14,2.41,2.26,4.83c.47,1,.93,2.05,1.42,3.06a2.12,2.12,0,0,1,.19,1.42,1.29,1.29,0,0,1-1,1.05,1.25,1.25,0,0,1-1.36-.46,4.65,4.65,0,0,1-.34-.52l-3-4.78c-.36-.56-.36-.56-1-.37l-5.1,1.55a.74.74,0,0,0-.63.64c-.27,1.76-.58,3.51-.87,5.26-.11.7-.1.7.58,1l4.6,1.85a2.51,2.51,0,0,1,1.11.73,1.48,1.48,0,0,1,.14,1.76,1.37,1.37,0,0,1-1.65.6c-1.69-.55-3.37-1.12-5-1.69L73.6,24.66a1.41,1.41,0,0,1-1.1-1.56V17.76Z"/><path class="cls-1" d="M80.49,103.14c-.49,1-.92,2-1.34,2.89L77,110.76c-.26.55-.55.73-1,.68a.78.78,0,0,1-.7-1.1,2.71,2.71,0,0,1,.17-.39l4.1-8.85c.05-.11.09-.23.15-.34a.93.93,0,0,1,1.68,0,5.6,5.6,0,0,1,.27.55q1.53,3.28,3,6.57a1.62,1.62,0,0,0,.34.58l.22-.47c1.06-2.28,2.11-4.57,3.17-6.85.06-.13.11-.26.18-.38a.92.92,0,0,1,1.64,0,5.91,5.91,0,0,1,.36.71q2,4.23,3.91,8.46a3.49,3.49,0,0,1,.15.34.81.81,0,0,1-.37,1.14A1,1,0,0,1,93,111a3.31,3.31,0,0,1-.15-.33l-3.24-7-.2-.42a1.11,1.11,0,0,0-.32.55c-1,2.25-2.08,4.49-3.11,6.74a3.45,3.45,0,0,1-.28.54.92.92,0,0,1-1.58-.06,10.26,10.26,0,0,1-.44-1c-1-2.1-1.94-4.19-2.9-6.29C80.7,103.58,80.62,103.42,80.49,103.14Z"/><path class="cls-1" d="M49.14,91.9a1.66,1.66,0,0,1,.38.29,3,3,0,0,1,0,4,3.54,3.54,0,0,1-2.66,1.21c-2.09,0-4.17,0-6.26,0a1.63,1.63,0,0,1-.31,0,.84.84,0,0,1-.69-.82.83.83,0,0,1,.76-.75,4.28,4.28,0,0,1,.62,0q2.73,0,5.46,0a3,3,0,0,0,.79-.08,1.59,1.59,0,0,0,1.25-1.6,1.63,1.63,0,0,0-1.41-1.47,3.83,3.83,0,0,0-.68,0H40.8a1.69,1.69,0,0,1-.67-.08.84.84,0,0,1-.54-.81.83.83,0,0,1,.68-.7,3.38,3.38,0,0,1,.55,0h5.53a3.5,3.5,0,0,0,.85-.08,1.61,1.61,0,0,0,1.27-1.59,1.63,1.63,0,0,0-1.39-1.49,5.29,5.29,0,0,0-.8,0H40.82a1.71,1.71,0,0,1-.67-.07.82.82,0,0,1-.56-.73.8.8,0,0,1,.6-.76,2.06,2.06,0,0,1,.55-.06c2,0,3.93,0,5.89,0a3.7,3.7,0,0,1,2.68,1,3,3,0,0,1,.11,4.29A.69.69,0,0,0,49.14,91.9Z"/><path class="cls-1" d="M96.49,97.38h-3a1.39,1.39,0,0,1-.6-.08.81.81,0,0,1-.55-.8.84.84,0,0,1,.67-.71,4.16,4.16,0,0,1,.61,0c1.87,0,3.73,0,5.59,0a3,3,0,0,0,.73-.07,1.65,1.65,0,0,0,1.3-1.58,1.67,1.67,0,0,0-1.46-1.51,4.28,4.28,0,0,0-.62,0H95.9a3.6,3.6,0,0,1-2.57-1,3,3,0,0,1,0-4.46,3.64,3.64,0,0,1,2.58-1q3,0,6.08,0a2,2,0,0,1,.42,0,.77.77,0,0,1,.6.76.79.79,0,0,1-.6.76,2.1,2.1,0,0,1-.61,0H96.32a5.23,5.23,0,0,0-.79,0,1.56,1.56,0,0,0-.13,3.08,3.47,3.47,0,0,0,.79.08h3.32a3.57,3.57,0,0,1,2.6,1.06,3,3,0,0,1,0,4.29,3.68,3.68,0,0,1-2.66,1.07C98.46,97.39,97.48,97.38,96.49,97.38Z"/><path class="cls-1" d="M50.26,107.41c0-1,0-2.09,0-3.13a.85.85,0,0,1,.87-.84.88.88,0,0,1,.92.74,4,4,0,0,1,0,.49v4.48c0,.14,0,.29,0,.43s.06.26.25.26a19,19,0,0,0,3.61-.15,4.24,4.24,0,0,0,2.57-1.76,3.65,3.65,0,0,0-.36-4.63,4.57,4.57,0,0,0-3.4-1.45H51.47a3.38,3.38,0,0,1-.55,0,.83.83,0,0,1-.66-.71.8.8,0,0,1,.49-.78,1.13,1.13,0,0,1,.54-.1c1.25,0,2.5,0,3.75,0a6.19,6.19,0,0,1,4.33,1.88,5.18,5.18,0,0,1,0,7.43,6.26,6.26,0,0,1-4.58,1.89h-3.5c-.79,0-1.05-.29-1.05-1.09Z"/><path class="cls-1" d="M87.51,86.14c.63,0,1.26,0,1.9,0a1.8,1.8,0,0,1,.61.08.79.79,0,0,1,.54.74.78.78,0,0,1-.54.74,1.84,1.84,0,0,1-.66.07c-1.21,0-2.42,0-3.63,0a4.19,4.19,0,0,0-2.48.93,3.71,3.71,0,0,0-.13,6,4.49,4.49,0,0,0,3,1h3.19a3.08,3.08,0,0,1,.61,0,.77.77,0,0,1,.64.72.77.77,0,0,1-.51.76.86.86,0,0,1-.35.09,27.92,27.92,0,0,1-4.84-.12,5.72,5.72,0,0,1-4.75-4,4.92,4.92,0,0,1,1.22-5,6.36,6.36,0,0,1,4.89-2Z"/><path class="cls-1" d="M32.79,111.46a11.4,11.4,0,0,1-2.81-.19A5.71,5.71,0,0,1,25.52,107a4.81,4.81,0,0,1,.86-4.24,6.19,6.19,0,0,1,4.89-2.53c1.25,0,2.49,0,3.74,0a1.11,1.11,0,0,1,.54.1.76.76,0,0,1,.48.83.78.78,0,0,1-.64.66,3.38,3.38,0,0,1-.55,0H31.52a4.53,4.53,0,0,0-3.25,1.36,3.67,3.67,0,0,0,0,5.28,4.3,4.3,0,0,0,3,1.33c1.19,0,2.37,0,3.56,0a1.8,1.8,0,0,1,.61,0,.81.81,0,0,1,.58.84.78.78,0,0,1-.67.69,2.69,2.69,0,0,1-.49,0Z"/><path class="cls-1" d="M43.2,103.2a1.54,1.54,0,0,0-.34.58c-1,2.23-2,4.46-3.08,6.68-.09.19-.17.38-.27.55a1,1,0,0,1-1.24.34A.78.78,0,0,1,38,110.2l2.91-6.29c.47-1,.93-2,1.42-3.06a.93.93,0,0,1,1.42-.45,1.32,1.32,0,0,1,.42.6c.34.72.67,1.44,1,2.17l3.11,6.73a3.49,3.49,0,0,1,.15.34.79.79,0,0,1-.33,1.1,1,1,0,0,1-1.24-.32,3.17,3.17,0,0,1-.24-.49C45.46,108.09,44.34,105.66,43.2,103.2Z"/><path class="cls-1" d="M53,53.3a6.68,6.68,0,1,1,6.74-6.6A6.66,6.66,0,0,1,53,53.3Z"/><path class="cls-1" d="M97.9,109.13V107.9c0-.47,0-.47-.47-.58a5.58,5.58,0,0,1-2.28-1.14,4.46,4.46,0,0,1-1.7-3.64c0-.45,0-.9,0-1.35a.89.89,0,1,1,1.78,0v1.28a3.2,3.2,0,0,0,2.38,3.2,3.71,3.71,0,0,0,3.67-.75,3,3,0,0,0,1.06-2.32c0-.49,0-1,0-1.47a.89.89,0,1,1,1.77,0c0,.45,0,.9,0,1.35a4.6,4.6,0,0,1-2.5,4.27,3.88,3.88,0,0,1-1.54.57c-.36.06-.41.22-.4.53q0,1.35,0,2.7a.84.84,0,0,1-1,.89.78.78,0,0,1-.73-.77c0-.51,0-1,0-1.53Z"/><path class="cls-1" d="M76.33,91.76c0-1.53,0-3.07,0-4.6,0-.62.3-1,.84-1a.87.87,0,0,1,1,.81,3.09,3.09,0,0,1,0,.43v9a.91.91,0,1,1-1.82,0c0-.92,0-1.84,0-2.76Z"/><path class="cls-1" d="M69.24,87.77H65.07a1.79,1.79,0,0,1-.61-.06.8.8,0,0,1-.56-.79.76.76,0,0,1,.58-.71,2.4,2.4,0,0,1,.6-.06q4.14,0,8.29,0a2.41,2.41,0,0,1,.54,0,.79.79,0,0,1,.66.78.8.8,0,0,1-.67.76,2.55,2.55,0,0,1-.55,0Z"/><path class="cls-1" d="M68.07,106.64H63.89a2.68,2.68,0,0,1-.49,0,.83.83,0,0,1-.71-.73.85.85,0,0,1,.58-.79,1.44,1.44,0,0,1,.54-.07h8.47a1.44,1.44,0,0,1,.54.07.81.81,0,0,1,.55.86.8.8,0,0,1-.71.66,2.57,2.57,0,0,1-.48,0Z"/><path class="cls-1" d="M68,101.85H64a5.06,5.06,0,0,1-.55,0,.78.78,0,0,1-.15-1.53,1.57,1.57,0,0,1,.61-.07h8.34a1.55,1.55,0,0,1,.6.07.81.81,0,0,1,.56.85.8.8,0,0,1-.7.67,3.38,3.38,0,0,1-.55,0Z"/><path class="cls-1" d="M70.14,93.37c0,1,0,2,0,3.07a.92.92,0,0,1-1.39.8.81.81,0,0,1-.43-.81c0-.8,0-1.6,0-2.4,0-1.24,0-2.49,0-3.74a.85.85,0,0,1,1-.92.84.84,0,0,1,.84.93C70.15,91.32,70.14,92.35,70.14,93.37Z"/><path class="cls-1" d="M30.25,67.7l2.6-2.52c.61.4.41.45.09.77l-1.8,1.82C30.71,68.2,30.71,68.2,30.25,67.7Z"/><path class="cls-1" d="M77.54,33.57c1-.5,2-1,3-1.48.26-.13.35-.05.47.17s0,.35-.2.45l-2.6,1.22C77.79,34.12,77.79,34.11,77.54,33.57Z"/><path class="cls-1" d="M53.71,75.45c0,.49,0,1,.08,1.47,0,.29-.14.31-.38.32s-.31-.07-.31-.31c0-1,0-2,0-3.06,0-.22,0-.33.29-.33s.32.09.32.32c0,.53,0,1.06,0,1.59Z"/><path class="cls-1" d="M39.76,70.35c.53.26.53.26.33.65-.42.86-.86,1.71-1.29,2.57-.1.22-.2.32-.46.19s-.29-.23-.15-.47C38.72,72.32,39.22,71.35,39.76,70.35Z"/><path class="cls-1" d="M74.85,68a1.6,1.6,0,0,1-.49.51,13.59,13.59,0,0,1-1.2-1.2c-.38-.4-.75-.81-1.14-1.2-.16-.16-.17-.27,0-.45s.3-.11.45,0Z"/><path class="cls-1" d="M76.23,60.62a.71.71,0,0,1,.31-.51L79.62,62a1.14,1.14,0,0,1-.36.57Z"/><path class="cls-1" d="M80.32,42.36c-.1,0-.17-.09-.19-.28s.06-.32.29-.35c1-.14,2-.29,3-.45.23,0,.34,0,.36.26s0,.39-.28.42c-.73.08-1.45.18-2.18.27Z"/><path class="cls-1" d="M71.33,71.07c-.67-.9-1.33-1.8-2-2.69-.29-.4.16-.39.3-.61l2.23,2.89A.92.92,0,0,1,71.33,71.07Z"/><path class="cls-1" d="M25.92,29.78l2.7,1.63c.36.21.53.18.05.73-1-.56-1.93-1.12-2.91-1.67-.18-.1-.24-.2-.1-.38A.81.81,0,0,1,25.92,29.78Z"/><path class="cls-1" d="M76.15,66.68a2,2,0,0,1-.43.52c-.86-.8-1.69-1.58-2.53-2.35-.14-.13-.11-.24,0-.36s.22-.25.4-.09Z"/><path class="cls-1" d="M23.29,46.5H24.7c.22,0,.4,0,.39.3s-.13.3-.34.31c-1,0-2,.07-3,.13-.27,0-.35-.09-.36-.35s.12-.34.37-.34c.51,0,1,0,1.53,0Z"/><path class="cls-1" d="M77.36,58.58l3,1.53c.2.1.28.2.15.42s-.2.33-.47.18c-.83-.47-1.68-.92-2.52-1.38C77.05,59.09,77.05,59.09,77.36,58.58Z"/><path class="cls-1" d="M28.71,59.67c.33.49.33.49,0,.72-.82.5-1.64,1-2.47,1.49a.37.37,0,0,1-.6-.29c0-.2.16-.22.27-.29Z"/><path class="cls-1" d="M23.82,58,27,56.66c.22-.09.28,0,.36.17s.09.3-.11.39q-1.47.63-2.91,1.29c-.18.08-.27,0-.33-.13S23.89,58.16,23.82,58Z"/><path class="cls-1" d="M29.6,61.15a1,1,0,0,1,.35.48l-2.95,2a1.06,1.06,0,0,1-.41-.53Z"/><path class="cls-1" d="M22.53,37.54c0-.14.06-.23.08-.33s.14-.31.38-.24l3.2,1c-.11.58-.11.58-.59.45Z"/><path class="cls-1" d="M25.5,40.17l-2.77-.57a2.33,2.33,0,0,0-.36-.08c-.3,0-.29-.2-.25-.43s.13-.29.38-.23c1,.24,2,.46,3,.69.18,0,.29.13.21.35S25.65,40.23,25.5,40.17Z"/><path class="cls-1" d="M81.88,34.35c-1.08.43-2.11.83-3.13,1.25-.46.19-.35-.23-.53-.43l3.19-1.36c.18-.07.27,0,.32.14S81.82,34.18,81.88,34.35Z"/><path class="cls-1" d="M79.18,53.73l3.6,1.07c0,.14-.06.24-.08.33,0,.25-.16.3-.39.23l-3-1C78.84,54.23,79.34,54,79.18,53.73Z"/><path class="cls-1" d="M36.94,72.91a1.78,1.78,0,0,1-.6-.3c.61-1,1.21-2,1.8-3,.13-.21.25-.12.4,0s.22.2.1.39c-.26.41-.5.84-.75,1.26Z"/><path class="cls-1" d="M68.65,72.88l-.29.19c-.18.15-.3.14-.43-.09-.5-.91-1-1.81-1.53-2.72-.11-.19-.06-.29.11-.39s.28-.16.4,0C67.48,70.91,68.07,71.89,68.65,72.88Z"/><path class="cls-1" d="M23.81,33.85a1.44,1.44,0,0,0,.08-.26c.08-.34.24-.35.54-.21.88.41,1.78.8,2.68,1.19.18.08.34.12.22.39s-.22.27-.46.17Z"/><path class="cls-1" d="M59.6,76.47l-.36.09c-.21.09-.31,0-.35-.19l-.63-3.11c0-.22.06-.29.26-.32s.3,0,.35.21C59.1,74.24,59.35,75.33,59.6,76.47Z"/><path class="cls-1" d="M45.37,76.32c.26-1.07.51-2.14.77-3.21,0-.18.09-.34.35-.28s.29.2.23.43c-.22.94-.41,1.88-.62,2.81-.1.45-.1.45-.54.33A.71.71,0,0,1,45.37,76.32Z"/><path class="cls-1" d="M42.25,75.43c-.18-.06-.29-.11-.41-.14s-.21-.15-.15-.32c.38-1,.76-2,1.13-3,.08-.22.22-.2.38-.15s.28.13.2.35C43,73.25,42.64,74.31,42.25,75.43Z"/><path class="cls-1" d="M82.55,36.19,79.1,37.31a1.13,1.13,0,0,1-.21-.55l3.19-1.12c.2-.08.31,0,.36.18A3.1,3.1,0,0,0,82.55,36.19Z"/><path class="cls-1" d="M27.7,64.74l2.73-2.06c.18-.13.28-.07.4.08s.16.26,0,.4l-2.5,2c-.14.11-.25.13-.35,0S27.81,64.9,27.7,64.74Z"/><path class="cls-1" d="M77.41,65.18a1.17,1.17,0,0,1-.44.51l-2.56-2.08c-.16-.13-.25-.23-.08-.45s.31-.16.49,0Z"/><path class="cls-1" d="M23.14,56.16,26.32,55c.23-.08.31,0,.39.22s-.05.31-.23.37c-.92.34-1.84.67-2.75,1-.29.11-.47.1-.53-.24C23.19,56.34,23.16,56.27,23.14,56.16Z"/><path class="cls-1" d="M25.15,41.88C24,41.72,23,41.56,22,41.43c-.3,0-.27-.22-.25-.43s.2-.27.4-.24l3,.49c.21,0,.33.09.3.35S25.26,41.9,25.15,41.88Z"/><path class="cls-1" d="M80.72,48.73l2.84.27c.3,0,.38.14.35.43s-.22.28-.44.25l-2.86-.35c-.14,0-.34,0-.39-.21s.07-.41.35-.4Z"/><path class="cls-1" d="M25.48,51.68c.25,0,.23.17.28.31s-.06.25-.21.29l-2.26.52c-.28.06-.56.12-.83.2s-.29-.07-.32-.24-.1-.37.18-.43l3.1-.64Z"/><path class="cls-1" d="M55.67,76.45a2.77,2.77,0,0,0,0,.3c0,.27,0,.37-.31.38s-.33-.09-.35-.34c-.06-1-.15-2-.22-2.94,0-.15-.08-.34.16-.4s.41,0,.44.31c.09.9.17,1.79.26,2.69Z"/><path class="cls-1" d="M69.75,72.21l-1.82-2.8c-.12-.18-.16-.3,0-.45s.35,0,.48.15c.54.81,1.09,1.63,1.65,2.43.17.23.19.39-.09.52A2.91,2.91,0,0,0,69.75,72.21Z"/><path class="cls-1" d="M50.15,74.16c-.08.88-.17,1.75-.24,2.62,0,.22-.07.35-.33.31s-.37-.09-.33-.38c.13-1,.24-2,.34-3,0-.25.15-.28.36-.26s.27.13.23.33a2.85,2.85,0,0,0,0,.42Z"/><path class="cls-1" d="M22,51.1c-.18,0-.2-.14-.23-.34s0-.3.23-.33L25.08,50c.18,0,.32,0,.34.23s0,.33-.19.37Z"/><path class="cls-1" d="M40.42,74.71a2.7,2.7,0,0,0-.33-.13c-.24-.07-.28-.17-.17-.4.43-.93.84-1.86,1.26-2.79.08-.18.14-.32.4-.2s.26.22.17.43C41.31,72.63,40.88,73.64,40.42,74.71Z"/><path class="cls-1" d="M63.34,75.33a.73.73,0,0,1-.34.19c-.2.07-.3,0-.37-.18-.17-.56-.37-1.12-.56-1.68s-.33-1-.5-1.49c.54-.27.54-.27.71.19Z"/><path class="cls-1" d="M44.54,72.37c.58.11.58.11.45.57-.24.85-.5,1.68-.72,2.53-.17.66-.23.62-.79.32C43.84,74.65,44.19,73.51,44.54,72.37Z"/><path class="cls-1" d="M61.45,75.86c0,.23-.2.19-.33.25s-.29,0-.34-.2c-.23-.89-.47-1.77-.71-2.66,0-.14-.07-.27-.11-.41s.1-.25.26-.32.27,0,.32.15l.9,3.11S61.45,75.82,61.45,75.86Z"/><path class="cls-1" d="M81.43,58.48a2,2,0,0,1-.24.55c-.16.08-.27-.05-.39-.1l-2.67-1.24c-.14-.07-.31-.12-.21-.35s.19-.33.45-.22C79.37,57.58,80.38,58,81.43,58.48Z"/><path class="cls-1" d="M63.18,71.55c.58-.34.55-.25.74.21l1,2.41c.22.51.22.51-.42.73Z"/><path class="cls-1" d="M57.66,76.69c0,.1-.07.19-.28.2S57,77,57,76.68c-.1-.79-.21-1.58-.33-2.36,0-.23,0-.45-.1-.67s0-.36.29-.41.29.13.31.32C57.32,74.56,57.48,75.57,57.66,76.69Z"/><path class="cls-1" d="M83.61,51a.58.58,0,0,1,0,.39c0,.19-.1.27-.33.23-1-.2-2-.38-3.08-.56-.2,0-.24-.16-.22-.36s.13-.27.33-.24Z"/><path class="cls-1" d="M28.13,58.53c0,.14-.06.19-.14.24l-2.81,1.47c-.24.13-.32,0-.42-.18s-.1-.32.13-.43c.93-.45,1.85-.92,2.79-1.37A.3.3,0,0,1,28.13,58.53Z"/><path class="cls-1" d="M51.84,75.35c0,.54,0,1.07,0,1.6,0,.27-.15.28-.36.27s-.33-.06-.32-.31c.07-1,.12-2.09.17-3.13,0-.24.12-.25.31-.25s.3.07.29.29c0,.51,0,1-.07,1.53Z"/><path class="cls-1" d="M35.89,67.87c-.68.88-1.37,1.77-2,2.67-.16.2-.27.18-.45,0s-.26-.26-.07-.49c.61-.73,1.21-1.49,1.81-2.24C35.45,67.47,35.45,67.47,35.89,67.87Z"/><path class="cls-1" d="M81.09,44.05c-.14,0-.29,0-.43,0s-.33,0-.34-.29.1-.31.32-.33c1-.07,2-.16,2.93-.24.21,0,.41,0,.44.26s0,.38-.29.4l-2.63.17Z"/><path class="cls-1" d="M24.45,43.57c-.82-.07-1.71-.16-2.61-.22-.25,0-.35-.08-.33-.36s.17-.32.4-.29c1,.1,2,.2,3,.28.23,0,.31.11.3.35s-.17.28-.37.26Z"/><path class="cls-1" d="M21.55,48.52l3.29-.28c.21,0,.36,0,.37.27s-.08.32-.31.34c-.94.08-1.87.18-2.81.27C21.52,49.18,21.52,49.17,21.55,48.52Z"/><path class="cls-1" d="M70.54,67.11c.43-.42.43-.42.76-.06l2.07,2.38a1.2,1.2,0,0,1-.5.44Z"/><path class="cls-1" d="M78.87,55.46l.23.07,2.75,1c.22.08.35.16.23.43s-.2.32-.45.21c-.94-.38-1.89-.74-2.84-1.11-.11,0-.32-.08-.21-.29S78.62,55.43,78.87,55.46Z"/><path class="cls-1" d="M76.7,32.07l3-1.74c.26-.15.31.08.4.22s.1.28-.1.39q-1.36.73-2.73,1.5C76.83,32.67,76.88,32.27,76.7,32.07Z"/><path class="cls-1" d="M79.69,38.93c-.22,0-.19-.16-.25-.28a.18.18,0,0,1,.12-.28.85.85,0,0,1,.17-.06c1-.27,1.92-.52,2.88-.81.28-.08.35,0,.42.25s0,.34-.21.4l-2.95.75A1.13,1.13,0,0,1,79.69,38.93Z"/><path class="cls-1" d="M29,66.22c.82-.71,1.68-1.43,2.52-2.17.2-.18.3-.07.44.07s.08.28-.05.4c-.76.68-1.53,1.35-2.28,2-.19.18-.33.18-.49,0S29,66.38,29,66.22Z"/><path class="cls-1" d="M78.19,64.16l-2.78-2c-.2-.14-.12-.25,0-.4s.22-.2.4-.08c.85.6,1.7,1.19,2.56,1.77.22.14.21.27.06.44Z"/><path class="cls-1" d="M23.16,35.69c-.05-.16,0-.24.05-.34.05-.29.21-.28.44-.19L26,36l.57.21c.19.06.25.16.17.36s-.12.31-.34.23Z"/><path class="cls-1" d="M34.71,71.52c.66-.94,1.32-1.87,2-2.81.14-.2.25-.12.4,0s.21.22.09.4c-.59.86-1.17,1.72-1.75,2.59-.13.21-.26.21-.44.06Z"/><path class="cls-1" d="M83.5,40l-3.23.63c-.17,0-.36.1-.42-.19s0-.36.29-.41c.91-.18,1.8-.4,2.7-.57C83.4,39.33,83.43,39.22,83.5,40Z"/><path class="cls-1" d="M84,47.12c.09.11.06.21.07.31s0,.34-.3.33c-1-.08-2.08-.14-3.12-.19-.21,0-.27-.11-.27-.31s.09-.3.29-.29C81.77,47,82.89,47,84,47.12Z"/><path class="cls-1" d="M28.14,33.32c0,.12-.28.34-.48.24l-2.8-1.37c-.23-.11-.22-.24-.12-.43s.18-.3.42-.18c.93.5,1.87,1,2.81,1.47A.3.3,0,0,1,28.14,33.32Z"/><path class="cls-1" d="M34.08,66.4a.79.79,0,0,1,.46.38L32.18,69.5a1.38,1.38,0,0,1-.51-.45Z"/><path class="cls-1" d="M48.48,73.28c-.16,1.1-.34,2.2-.5,3.31,0,.25-.16.29-.38.23s-.34-.08-.29-.35c.19-1,.34-1.93.52-2.89C47.91,73.12,48,73.05,48.48,73.28Z"/><path class="cls-1" d="M79.8,52.12l.32.06c.93.21,1.86.41,2.79.64.45.11.38.08.28.54,0,.17-.14.18-.27.15l-3.13-.79c-.2,0-.2-.17-.17-.32S79.7,52.13,79.8,52.12Z"/><path class="cls-1" d="M22.56,54.32c.58-.24,1.18-.35,1.76-.53.43-.13.86-.24,1.29-.36s.48-.13.6.45l-3.26,1c-.17.06-.27,0-.31-.18S22.59,54.46,22.56,54.32Z"/><path class="cls-1" d="M66.88,73.72c0,.17-.1.2-.21.25s-.24.18-.37,0a.72.72,0,0,1-.12-.21c-.43-.9-.86-1.79-1.3-2.69-.11-.2-.11-.32.12-.42s.29-.1.39.1l1.44,2.83A1.17,1.17,0,0,1,66.88,73.72Z"/><path class="cls-1" d="M23.24,45.29c-.51,0-1,0-1.53,0-.3,0-.32-.15-.32-.39s.12-.3.35-.29l3,.12c.13,0,.3,0,.35.17a.3.3,0,0,1-.31.42c-.51,0-1,0-1.53,0Z"/><path class="cls-1" d="M82.17,45.8H80.64c-.15,0-.27,0-.26-.23s0-.34.23-.35.49,0,.73,0l2.2,0c.53,0,.52,0,.53.33,0,.49-.34.29-.55.31C83.07,45.82,82.62,45.81,82.17,45.8Z"/><path class="cls-2" d="M34.18,23.93A11.48,11.48,0,1,1,45.72,12.57,11.47,11.47,0,0,1,34.18,23.93Z"/><path class="cls-2" d="M43.05,43.13c-3.5-6.31-7.17-12.32-11-18.32a4.66,4.66,0,0,1,1.1.09,16.11,16.11,0,0,0,4.15-.35c2.69-.58,5.41-1.08,8.12-1.61l5.35-1.05c.52-.11.52-.11.75.34.39.78.78,1.57,1.18,2.35a1,1,0,0,1,0,1c-3.05,5.25-5.78,10.68-8.74,16C43.69,42,43.41,42.5,43.05,43.13Z"/><path class="cls-2" d="M70.32,12a6.22,6.22,0,1,1-6.16-6.26A6.19,6.19,0,0,1,70.32,12Z"/><path class="cls-2" d="M61.45,18.79,41.54,22.7c.46-.48,1-.87,1.4-1.31a9.71,9.71,0,0,0,1.36-1.58,1.07,1.07,0,0,1,.83-.53c1.44-.16,2.88-.34,4.33-.52L55.91,18l3.23-.41a.62.62,0,0,1,.52.1A14.45,14.45,0,0,0,61.45,18.79Z"/><path class="cls-2" d="M41.13,2,61.28,5.29l-.92.54A1,1,0,0,0,60.1,6c-.53.61-1.21.52-1.91.44-2.29-.29-4.58-.55-6.87-.82l-6.94-.83a.74.74,0,0,1-.53-.25,12,12,0,0,0-2.57-2.36l-.21-.11Z"/><path class="cls-3" d="M45.28,18.28a14.36,14.36,0,0,0,1-2.76,22.87,22.87,0,0,0,.48-2.81l2.53,5.07Z"/><path class="cls-1" d="M62.51,87.65a6.71,6.71,0,0,0-9.06.55,5.17,5.17,0,0,0,.07,7.21,6.72,6.72,0,0,0,9,.46A5.22,5.22,0,0,0,62.51,87.65Zm-1.07,6.9a4.76,4.76,0,0,1-6.63-.28,3.65,3.65,0,0,1-.08-4.92,4.47,4.47,0,0,1,3.59-1.57A4.41,4.41,0,0,1,61.43,89,3.68,3.68,0,0,1,61.44,94.55Z"/><path class="cls-1" d="M31.59,86.15A6.38,6.38,0,0,0,26.94,88a5.2,5.2,0,0,0,0,7.48,6.66,6.66,0,0,0,9.47-.2,5.15,5.15,0,0,0,.22-6.84A6.29,6.29,0,0,0,31.59,86.15Zm3.26,8.34a4.78,4.78,0,0,1-6.64-.15,3.68,3.68,0,0,1,0-5.15,4.66,4.66,0,0,1,3.64-1.41A4.31,4.31,0,0,1,34.79,89,3.73,3.73,0,0,1,34.85,94.49Z"/><path class="cls-2" d="M53,52.32a5.7,5.7,0,1,1,5.74-5.65A5.7,5.7,0,0,1,53,52.32Z"/><path class="cls-1" d="M65.84,5c-1.08-.26-2.19-.28-3.28-.48C59.71,4,56.84,3.56,54,3.08L45.5,1.68C42.62,1.2,39.73.74,36.85.25a13.74,13.74,0,0,0-4.7-.08A12.43,12.43,0,0,0,22.38,16.3a12.19,12.19,0,0,0,7.84,8,1.17,1.17,0,0,1,.67.47c2.87,4.69,5.88,9.3,8.58,14.1.83,1.48,1.7,2.94,2.54,4.41A1.18,1.18,0,0,0,43,44a1.14,1.14,0,0,0,1.18-.7c.68-1.24,1.38-2.46,2.06-3.7,2.42-4.45,4.74-9,7.29-13.35a2.08,2.08,0,0,0,.05-2.2c-.41-.77-.78-1.57-1.18-2.35a1.71,1.71,0,0,1,.61-.19l3.43-.67c3-.56,5.89-1.22,8.85-1.69A7.21,7.21,0,0,0,65.84,5ZM34.21,19.14a6.69,6.69,0,1,1,6.71-6.63A6.67,6.67,0,0,1,34.21,19.14ZM56.46,16.9c-1.88.23-3.77.46-5.66.71a.51.51,0,0,1-.62-.31c-1.23-2.5-2.47-5-3.71-7.47a1.07,1.07,0,0,1-.1-.22,12.89,12.89,0,0,0-1.56-3.78L58.45,7.44a7.42,7.42,0,0,0,.08,9.18Zm7.66-.82a4.12,4.12,0,1,1,4.1-4.14A4.06,4.06,0,0,1,64.12,16.08Z"/></g></g></svg>