<?xml version="1.0" standalone="no"?>
<!DOCTYPE svg PUBLIC "-//W3C//DTD SVG 20010904//EN"
 "http://www.w3.org/TR/2001/REC-SVG-20010904/DTD/svg10.dtd">
<svg version="1.0" xmlns="http://www.w3.org/2000/svg"
 width="750.000000pt" height="348.000000pt" viewBox="0 0 750.000000 348.000000"
 preserveAspectRatio="xMidYMid meet">
<metadata>
Created by potrace 1.16, written by Peter Selinger 2001-2019
</metadata>
<g transform="translate(0.000000,348.000000) scale(0.100000,-0.100000)"
fill="#000000" stroke="none">
<path d="M0 2980 l0 -500 115 0 115 0 0 -745 0 -745 -115 0 -115 0 0 -495 0
-495 778 2 777 3 3 492 2 493 -110 0 -110 0 0 110 0 110 375 0 375 0 0 480 0
480 -344 0 c-189 0 -358 3 -375 6 l-31 7 0 148 0 149 170 0 170 0 0 -105 0
-105 550 0 550 0 0 605 0 605 -1390 0 -1390 0 0 -500z m2700 -105 l0 -525
-470 0 -470 0 0 105 0 105 -250 0 -250 0 0 -235 0 -235 375 0 375 0 0 -400 0
-400 -375 0 -375 0 0 -190 0 -190 105 0 105 0 0 -415 0 -415 -695 0 -695 0 0
415 0 414 118 3 117 3 3 823 2 822 -120 0 -120 0 0 420 0 420 1310 0 1310 0 0
-525z"/>
<path d="M150 2980 l0 -350 115 0 115 0 0 -895 0 -895 -115 0 -115 0 0 -345 0
-345 630 0 630 0 0 345 0 345 -110 0 -110 0 0 260 0 260 375 0 375 0 0 330 0
330 -375 0 -375 0 0 305 0 305 325 0 325 0 0 -105 0 -105 395 0 395 0 0 455 0
455 -1240 0 -1240 0 0 -350z"/>
<path d="M2860 2980 l0 -500 115 0 115 0 0 -745 0 -745 -115 0 -115 0 0 -495
0 -495 780 0 780 0 0 495 0 495 -110 0 -110 0 0 745 0 745 110 0 110 0 0 500
0 500 -780 0 -780 0 0 -500z m1480 0 l0 -420 -115 0 -115 0 0 -825 0 -825 115
0 115 0 0 -415 0 -415 -700 0 -700 0 0 415 0 415 120 0 120 0 0 825 0 825
-120 0 -120 0 0 420 0 420 700 0 700 0 0 -420z"/>
<path d="M3010 2980 l0 -350 115 0 115 0 0 -895 0 -895 -115 0 -115 0 2 -342
3 -343 628 -3 627 -2 0 345 0 345 -110 0 -110 0 0 895 0 895 110 0 110 0 0
350 0 350 -630 0 -630 0 0 -350z"/>
<path d="M4490 2980 l0 -500 115 0 115 0 0 -900 0 -900 323 -339 322 -340 633
0 633 -1 32 37 c18 21 161 174 319 341 l288 304 0 899 0 899 115 0 115 0 0
500 0 500 -745 0 -745 0 0 -500 0 -500 80 0 80 0 0 -745 0 -745 -175 0 -175 0
0 745 0 745 75 0 75 0 0 500 0 500 -740 0 -740 0 0 -500z m1390 0 l0 -420 -70
0 -70 0 0 -825 0 -825 255 0 255 0 0 825 0 825 -80 0 -80 0 0 420 0 420 665 0
665 0 0 -420 0 -420 -115 0 -115 0 0 -922 0 -923 -301 -317 -301 -318 -592 0
-592 0 -302 317 -302 318 0 923 0 922 -110 0 -110 0 0 420 0 420 650 0 650 0
0 -420z"/>
<path d="M4640 2980 l0 -350 115 0 115 0 0 -938 0 -939 287 -301 288 -302 550
0 550 0 288 302 287 301 0 939 0 938 115 0 115 0 0 350 0 350 -590 0 -590 0 0
-350 0 -350 75 0 75 0 0 -856 0 -856 -31 -39 -31 -39 -262 0 -263 0 -31 39
-32 40 0 855 0 856 70 0 70 0 0 350 0 350 -585 0 -585 0 0 -350z"/>
</g>
</svg>
