<?xml version="1.0" standalone="no"?>
<!DOCTYPE svg PUBLIC "-//W3C//DTD SVG 20010904//EN"
 "http://www.w3.org/TR/2001/REC-SVG-20010904/DTD/svg10.dtd">
<svg version="1.0" xmlns="http://www.w3.org/2000/svg"
 width="1500.000000pt" height="1502.000000pt" viewBox="0 0 1500.000000 1502.000000"
 preserveAspectRatio="xMidYMid meet">
<metadata>
Created by potrace 1.16, written by Peter Selinger 2001-2019
</metadata>
<g transform="translate(0.000000,1502.000000) scale(0.100000,-0.100000)"
fill="#000000" stroke="none">
<path d="M7310 14921 c0 -219 -45 -421 -135 -601 -53 -106 -115 -188 -202
-271 -127 -119 -229 -174 -478 -257 -142 -48 -159 -51 -310 -61 -88 -6 -248
-11 -356 -11 -228 0 -296 13 -445 85 -210 101 -379 281 -502 533 -26 53 -56
116 -65 140 -9 23 -22 42 -29 41 -7 0 -85 -31 -173 -68 -133 -55 -160 -70
-158 -86 1 -11 17 -58 37 -105 162 -389 132 -788 -81 -1081 -52 -71 -106 -126
-269 -270 -102 -90 -125 -105 -280 -181 -269 -133 -482 -215 -588 -229 -305
-39 -611 86 -905 370 -35 34 -67 60 -71 59 -4 -2 -67 -60 -140 -130 l-131
-128 80 -81 c272 -273 408 -606 374 -912 -15 -132 -48 -234 -133 -413 -83
-174 -135 -240 -410 -515 -178 -179 -189 -188 -280 -232 -281 -136 -573 -135
-921 3 -56 22 -105 40 -109 40 -6 0 -104 -225 -146 -334 -4 -10 10 -20 50 -35
228 -85 458 -250 588 -421 67 -88 143 -246 168 -350 30 -126 34 -214 20 -430
l-12 -194 -52 -151 c-62 -177 -167 -431 -203 -494 -35 -59 -164 -194 -238
-246 -177 -126 -381 -188 -672 -202 l-133 -6 0 -189 0 -188 123 0 c338 0 631
-112 835 -318 119 -122 181 -233 265 -478 52 -151 56 -170 66 -307 17 -223 14
-570 -4 -641 -62 -238 -210 -441 -426 -585 -90 -61 -270 -153 -323 -167 -14
-3 -29 -10 -31 -15 -6 -9 120 -327 135 -342 4 -5 52 9 106 31 403 161 759 143
1059 -52 90 -59 176 -141 321 -307 74 -85 94 -117 169 -270 110 -228 202 -455
216 -537 19 -105 6 -300 -26 -407 -52 -177 -167 -361 -326 -522 l-83 -84 136
-136 135 -135 87 84 c323 317 701 436 1066 337 41 -11 152 -56 245 -100 167
-78 173 -82 305 -198 74 -65 198 -183 275 -262 117 -119 148 -158 182 -224 70
-136 113 -307 113 -447 0 -135 -58 -382 -126 -537 -13 -29 -24 -57 -24 -61 0
-12 342 -152 350 -143 4 4 17 35 30 68 37 96 84 185 148 281 184 274 434 437
730 474 128 16 447 -2 547 -31 225 -66 591 -220 672 -282 191 -146 314 -350
368 -607 18 -86 38 -341 29 -376 l-6 -24 193 0 194 0 1 128 c2 157 23 284 72
428 83 244 235 432 448 554 88 50 411 167 501 180 38 6 196 13 353 17 271 5
289 5 370 -16 286 -74 521 -280 677 -596 22 -44 48 -102 58 -128 10 -27 23
-51 30 -53 11 -4 323 120 338 135 4 4 -10 52 -32 107 -161 399 -143 763 50
1057 57 88 126 159 291 305 106 94 129 109 270 177 258 124 455 202 549 216
157 23 339 -3 503 -71 110 -46 268 -155 383 -264 55 -53 105 -96 110 -96 10 0
263 252 263 262 0 4 -21 27 -46 50 -163 151 -321 405 -376 608 -20 73 -23 108
-22 250 0 150 3 173 27 253 40 131 206 467 264 535 101 118 321 348 390 407
175 150 453 228 698 196 118 -16 251 -51 381 -102 58 -23 106 -39 108 -38 5 8
135 325 138 337 2 8 -20 22 -57 36 -335 128 -595 365 -708 646 -65 163 -78
307 -56 612 11 143 14 162 61 298 74 215 175 448 221 510 196 266 518 410 920
410 l97 0 0 190 0 190 -107 0 c-326 0 -617 103 -814 288 -149 140 -216 254
-313 539 -53 157 -55 167 -65 320 -18 265 -14 506 9 597 51 201 177 391 344
520 127 97 228 155 379 216 31 13 57 28 57 33 0 8 -127 324 -137 339 -2 4 -21
1 -41 -8 -104 -46 -197 -78 -292 -102 -95 -24 -122 -27 -290 -26 -173 0 -191
2 -275 28 -208 63 -333 148 -515 350 -134 149 -158 186 -263 411 -130 282
-176 407 -189 516 -35 301 76 579 351 879 l84 92 -133 133 -134 134 -101 -98
c-328 -316 -715 -429 -1076 -315 -46 14 -147 57 -224 95 -124 60 -154 80 -265
176 -68 59 -195 178 -281 263 -141 140 -160 164 -201 245 -147 289 -150 577
-8 939 23 59 38 111 34 116 -18 17 -327 141 -339 136 -7 -2 -15 -17 -19 -31
-14 -57 -99 -223 -163 -318 -165 -248 -387 -404 -658 -463 -83 -18 -275 -20
-485 -3 -132 10 -157 15 -280 58 -74 27 -204 76 -287 111 -124 51 -168 75
-232 126 -247 195 -381 509 -381 891 l0 103 -190 0 -190 0 0 -99z m-351 -1427
c24 -19 54 -49 66 -67 46 -69 50 -93 48 -267 -1 -145 -5 -179 -30 -275 l-28
-110 -75 -7 c-234 -22 -569 -84 -822 -153 -92 -25 -171 -45 -176 -45 -15 0
-144 195 -190 286 -106 211 -94 314 50 420 134 99 329 173 568 215 213 38 322
49 444 42 94 -5 102 -7 145 -39z m1816 -13 c143 -22 275 -61 400 -120 75 -35
85 -43 114 -94 62 -109 52 -202 -42 -389 -74 -147 -191 -311 -216 -304 -262
81 -716 172 -958 192 -46 4 -83 8 -83 8 0 1 -14 69 -30 151 -22 107 -31 179
-31 250 0 110 7 145 47 212 30 51 89 84 196 108 90 21 430 13 603 -14z m-4031
-661 c66 -25 122 -79 163 -157 41 -77 99 -266 116 -380 l14 -91 -96 -53 c-221
-120 -519 -319 -719 -479 -62 -49 -118 -90 -123 -90 -5 0 -62 35 -127 79 -197
132 -286 228 -312 333 -10 39 -9 55 5 98 75 225 493 571 880 727 94 38 126 40
199 13z m5761 -35 c178 -61 326 -150 570 -340 98 -77 231 -212 245 -251 6 -16
12 -54 12 -85 2 -106 -71 -215 -231 -343 -89 -71 -244 -166 -256 -156 -294
229 -599 434 -810 543 -27 15 -56 30 -63 35 -10 7 -7 36 13 143 32 164 49 226
86 307 34 75 67 117 123 155 40 28 44 29 136 24 67 -3 118 -13 175 -32z
m-2475 -159 c945 -105 1798 -440 2550 -1001 368 -275 730 -636 1019 -1015 823
-1080 1182 -2466 991 -3823 -137 -971 -554 -1888 -1198 -2634 -146 -168 -436
-455 -592 -584 -646 -536 -1366 -893 -2164 -1074 -571 -129 -1193 -161 -1761
-89 -1389 175 -2622 886 -3474 2004 -466 611 -788 1327 -941 2090 -118 589
-131 1208 -39 1803 147 953 561 1841 1203 2582 133 153 427 442 576 566 614
510 1302 861 2062 1049 295 73 537 111 918 144 114 10 713 -3 850 -18z m4060
-1279 c88 -36 147 -82 275 -212 100 -102 135 -146 209 -266 115 -185 177 -303
214 -410 l30 -86 -22 -67 c-39 -116 -130 -183 -331 -245 -92 -28 -293 -68
-299 -60 -1 2 -29 51 -61 109 -123 222 -308 496 -468 695 -44 55 -80 105 -80
110 0 6 35 65 79 130 102 154 218 274 294 303 70 27 93 27 160 -1z m-9060 -30
c88 -40 263 -238 365 -414 l19 -32 -30 -38 c-160 -199 -358 -490 -478 -702
-41 -74 -77 -138 -78 -142 -4 -12 -283 46 -369 77 -98 35 -123 48 -170 91 -65
59 -83 103 -76 193 16 205 154 481 378 755 79 97 210 223 240 229 79 18 132
13 199 -17z m-1037 -1982 c83 -22 267 -117 368 -191 87 -64 87 -65 78 -97 -89
-297 -173 -716 -195 -968 l-7 -77 -136 -28 c-185 -39 -362 -41 -433 -5 -112
55 -148 145 -156 383 -9 309 47 599 164 850 32 67 42 79 86 103 89 48 137 55
231 30z m11134 4 c95 -36 206 -214 289 -465 67 -203 112 -511 98 -669 -6 -69
-11 -85 -40 -124 -79 -103 -147 -126 -349 -118 -102 3 -170 12 -251 31 l-111
27 -16 137 c-34 277 -85 532 -157 788 -22 78 -40 146 -40 152 0 15 185 139
270 182 132 67 234 87 307 59z m223 -2265 c101 -57 140 -174 140 -418 0 -321
-56 -590 -168 -812 -24 -47 -41 -68 -75 -87 -70 -41 -126 -51 -201 -37 -88 16
-280 111 -392 193 l-91 67 28 97 c73 252 168 767 169 916 0 18 4 39 10 47 5 8
62 25 142 42 111 23 154 27 258 25 119 -2 128 -3 180 -33z m-11414 15 c98 -9
143 -18 265 -50 l36 -9 7 -86 c8 -92 46 -348 72 -479 18 -90 96 -405 118 -478
l15 -48 -133 -88 c-175 -116 -266 -154 -367 -155 -66 -1 -81 2 -116 26 -84 55
-178 216 -246 418 -61 181 -114 553 -101 708 6 77 9 86 46 133 45 56 98 87
178 105 71 16 94 16 226 3z m10502 -2059 c194 -46 325 -131 352 -230 27 -102
-24 -281 -153 -534 -96 -189 -218 -358 -354 -493 -82 -82 -98 -92 -138 -99
-102 -15 -182 9 -270 81 -57 48 -177 196 -241 300 l-54 87 83 106 c163 210
305 421 422 627 37 66 78 139 91 161 l23 42 78 -15 c43 -8 115 -23 161 -33z
m-9553 -102 c115 -211 305 -496 472 -705 45 -57 83 -109 83 -115 0 -25 -158
-245 -224 -313 -79 -81 -134 -113 -206 -122 -147 -17 -409 212 -613 537 -96
154 -153 263 -191 368 -30 85 -31 92 -11 159 19 63 79 132 149 173 93 53 349
126 451 129 28 0 34 -7 90 -111z m8136 -1563 c272 -181 363 -322 299 -462
-107 -236 -505 -556 -856 -688 -80 -30 -107 -31 -176 -5 -104 39 -162 117
-223 300 -38 115 -81 333 -66 338 28 9 276 158 401 239 147 97 372 262 445
327 22 19 42 35 44 36 3 0 62 -38 132 -85z m-6655 -116 c164 -122 382 -260
640 -405 l42 -23 -14 -78 c-47 -258 -98 -387 -181 -463 -61 -56 -94 -66 -189
-56 -250 26 -660 264 -908 527 -64 67 -74 84 -80 125 -9 72 -8 89 15 150 35
94 189 242 362 350 l82 50 70 -54 c39 -30 111 -85 161 -123z m4807 -901 c170
-255 211 -403 142 -509 -55 -85 -217 -177 -445 -253 -207 -69 -511 -114 -674
-100 -73 6 -82 10 -130 48 -101 82 -128 182 -108 393 7 71 23 171 36 223 l23
95 134 17 c277 35 548 90 782 158 73 21 139 38 148 39 11 1 44 -40 92 -111z
m-3096 67 c251 -70 565 -131 827 -159 70 -8 132 -18 136 -23 5 -4 21 -69 36
-143 37 -182 39 -341 5 -416 -58 -132 -182 -171 -508 -161 -169 5 -203 10
-338 41 -183 44 -283 76 -395 128 -81 37 -88 42 -117 96 -62 113 -52 199 42
387 47 95 170 284 185 285 3 0 60 -16 127 -35z"/>
<path d="M7640 9333 c-591 -33 -962 -356 -1030 -897 -16 -123 -7 -294 20 -402
43 -173 163 -356 323 -495 176 -153 296 -221 927 -527 267 -129 382 -216 447
-338 42 -79 54 -130 54 -227 1 -158 -52 -291 -158 -396 -113 -113 -248 -161
-449 -161 -268 0 -470 85 -652 274 -94 98 -165 201 -228 333 -50 105 -114 292
-139 406 l-17 77 -89 0 -89 0 0 -650 0 -650 90 0 c90 0 90 0 96 28 14 56 47
113 75 127 46 24 90 18 271 -40 95 -31 229 -68 298 -82 114 -25 145 -27 355
-27 181 -1 249 3 320 17 291 57 505 166 672 340 130 136 211 281 261 465 23
87 26 115 25 267 0 153 -2 180 -27 270 -66 244 -228 474 -433 613 -32 22 -278
150 -548 285 -269 135 -526 269 -570 298 -109 72 -170 136 -208 217 -31 65
-32 71 -32 202 0 131 1 137 31 201 58 121 146 196 291 246 68 23 93 27 203 27
99 0 141 -5 203 -22 271 -77 493 -281 654 -602 29 -57 67 -151 85 -207 l33
-103 88 0 87 0 0 570 0 570 -95 0 c-54 0 -95 -4 -95 -10 0 -5 -9 -35 -21 -65
-25 -67 -62 -95 -127 -95 -24 0 -115 24 -215 56 -94 31 -211 64 -259 75 -86
19 -286 40 -343 37 -16 -1 -55 -3 -85 -5z"/>
<path d="M2800 9175 l0 -85 33 0 c64 0 180 -97 330 -274 l67 -79 0 -1237 c0
-850 -3 -1255 -11 -1295 -30 -166 -118 -224 -391 -260 l-48 -6 0 -80 0 -79
600 0 600 0 0 79 0 80 -47 6 c-222 31 -324 77 -379 170 -60 104 -58 49 -61
1230 -2 632 0 1076 5 1070 5 -6 512 -623 1127 -1372 l1117 -1363 84 0 84 0 2
1588 c3 1499 4 1590 21 1633 35 90 114 144 255 174 40 8 84 15 98 15 24 0 24
2 24 85 l0 85 -565 0 -565 0 0 -85 0 -85 35 0 c52 0 183 -29 233 -51 112 -49
174 -140 192 -284 7 -51 10 -363 8 -860 l-3 -780 -870 1072 -870 1072 -552 1
-553 0 0 -85z"/>
<path d="M9290 9175 l0 -85 58 0 c81 -1 201 -24 249 -48 54 -28 108 -92 124
-150 21 -72 21 -2684 0 -2757 -20 -68 -82 -128 -153 -150 -41 -12 -230 -44
-270 -45 -5 0 -8 -36 -8 -80 l0 -80 935 0 935 0 0 79 0 79 -87 6 c-306 22
-395 59 -445 184 l-23 57 -3 634 -3 634 92 -6 c191 -14 334 -70 435 -171 100
-100 160 -243 198 -471 10 -55 19 -110 22 -122 4 -22 9 -23 84 -23 l80 0 0
880 0 881 -82 -3 -82 -3 -22 -115 c-88 -451 -245 -602 -657 -634 l-68 -5 3
627 c3 624 3 627 25 668 29 55 71 73 195 87 127 13 419 -4 562 -34 310 -64
488 -209 586 -476 25 -69 56 -181 84 -305 6 -28 7 -28 86 -28 l80 0 0 530 0
530 -1465 0 -1465 0 0 -85z"/>
</g>
</svg>
