# Blender v2.91.2 OBJ File: 'Arrow.blend'
# www.blender.org
mtllib Arrow.mtl
o Cube
v 0.000000 -1.000000 -5.787434
v 0.000000 1.000000 -5.787434
v 1.000000 0.829056 -5.787434
v 0.829056 1.000000 -5.941606
v 0.829056 -1.000000 -5.941606
v 1.000000 -0.829056 -5.787434
v 0.829056 1.000000 0.829056
v 1.000000 0.829056 1.000000
v 0.829056 -1.000000 0.829056
v 1.000000 -0.829056 1.000000
v -0.829056 1.000000 -5.941606
v -1.000000 0.829056 -5.787434
v -1.000000 -0.829056 -5.787434
v -0.829056 -1.000000 -5.941606
v -0.829056 1.000000 0.829056
v -1.000000 0.829056 1.000000
v -0.829056 -1.000000 0.829056
v -1.000000 -0.829056 1.000000
v 2.004283 -1.000000 -6.063180
v 2.293685 -0.829056 -5.921262
v -2.004283 -1.000000 -6.063180
v -2.293685 -0.829056 -5.921262
v 2.004283 1.000000 -6.063180
v 2.293685 0.829056 -5.921262
v -2.004283 1.000000 -6.063180
v -2.293685 0.829056 -5.921262
v 0.000000 0.829056 1.000000
v 0.000000 1.000000 0.829056
v 0.000000 -0.829056 1.000000
v 0.000000 -1.000000 0.829056
v 0.000000 -0.829056 -9.613577
v 0.000000 -1.000000 -9.289623
v 0.000000 0.829056 -9.613577
v 0.000000 1.000000 -9.289623
vt 0.146368 0.494321
vt 0.250000 0.500000
vt 0.250000 0.743704
vt 0.146368 0.743704
vt 0.396368 0.375000
vt 0.603632 0.375000
vt 0.603632 0.500000
vt 0.396368 0.500000
vt 0.750000 0.500000
vt 0.853632 0.494321
vt 0.853632 0.743704
vt 0.750000 0.743704
vt 0.342052 0.500000
vt 0.250000 0.500000
vt 0.367508 0.500000
vt 0.646368 0.494321
vt 0.646368 0.743704
vt 0.396368 0.875000
vt 0.603632 0.875000
vt 0.603632 1.000000
vt 0.396368 1.000000
vt 0.396368 0.250000
vt 0.603632 0.250000
vt 0.353632 0.494321
vt 0.353632 0.743704
vt 0.396368 0.500000
vt 0.603632 0.500000
vt 0.603632 0.750000
vt 0.396368 0.750000
vt 0.842052 0.500000
vt 0.750000 0.500000
vt 0.867508 0.500000
vt 0.396368 0.000000
vt 0.603632 0.000000
vt 0.603632 0.250000
vt 0.396368 0.250000
vt 0.157948 0.500000
vt 0.132492 0.500000
vt 0.657948 0.500000
vt 0.632492 0.500000
vt 0.125000 0.750000
vt 0.125000 0.500000
vt 0.625000 0.875000
vt 0.625000 0.978632
vt 0.375000 0.750000
vt 0.250000 0.750000
vt 0.625000 0.006296
vt 0.625000 0.250000
vt 0.125000 0.500000
vt 0.250000 0.500000
vt 0.625000 0.382913
vt 0.625000 0.492142
vt 0.625000 0.250000
vt 0.625000 0.771368
vt 0.375000 0.500000
vt 0.625000 0.257858
vt 0.625000 0.367087
vn 0.0000 -1.0000 0.0000
vn 0.8494 0.0000 -0.5277
vn 0.0000 1.0000 0.0000
vn 0.0000 0.0000 1.0000
vn -0.8494 0.0000 -0.5277
vn 1.0000 0.0000 0.0000
vn -1.0000 0.0000 0.0000
vn -0.1029 0.0000 0.9947
vn -0.7071 -0.7071 0.0000
vn 0.0000 0.7071 0.7071
vn 0.7071 0.7071 0.0000
vn 0.0000 -0.7071 0.7071
vn -0.7071 0.7071 0.0000
vn 0.7071 -0.7071 0.0000
vn -0.6006 -0.7071 -0.3731
vn 0.6006 0.7071 -0.3731
vn -0.0728 -0.7071 0.7034
vn 0.0728 -0.7071 0.7034
vn 0.0728 0.7071 0.7034
vn -0.0728 0.7071 0.7034
vn 0.6006 -0.7071 -0.3731
vn -0.6006 0.7071 -0.3731
vn 0.1029 0.0000 0.9947
usemtl Material
s off
f 14/1/1 1/2/1 30/3/1 17/4/1
f 31/5/2 33/6/2 24/7/2 20/8/2
f 2/9/3 11/10/3 15/11/3 28/12/3
f 5/13/1 1/2/1 32/14/1 19/15/1
f 4/16/3 2/9/3 28/12/3 7/17/3
f 29/18/4 27/19/4 16/20/4 18/21/4
f 22/22/5 26/23/5 33/6/5 31/5/5
f 1/2/1 5/24/1 9/25/1 30/3/1
f 6/26/6 3/27/6 8/28/6 10/29/6
f 11/30/3 2/9/3 34/31/3 25/32/3
f 18/33/7 16/34/7 12/35/7 13/36/7
f 10/29/4 8/28/4 27/19/4 29/18/4
f 1/2/1 14/37/1 21/38/1 32/14/1
f 13/36/8 12/35/8 26/23/8 22/22/8
f 2/9/3 4/39/3 23/40/3 34/31/3
f 14/1/9 17/4/9 18/41/9 13/42/9
f 28/43/10 15/44/10 16/20/10 27/19/10
f 4/16/11 7/17/11 8/28/11 3/27/11
f 30/3/12 9/25/12 10/45/12 29/46/12
f 15/47/13 11/48/13 12/35/13 16/34/13
f 9/25/14 5/24/14 6/26/14 10/29/14
f 32/14/15 21/38/15 22/49/15 31/50/15
f 34/51/16 23/52/16 24/7/16 33/6/16
f 13/42/17 22/49/17 21/38/17 14/37/17
f 20/8/18 6/26/18 5/13/18 19/15/18
f 3/27/19 24/7/19 23/40/19 4/39/19
f 26/23/20 12/35/20 11/48/20 25/53/20
f 7/54/10 28/43/10 27/19/10 8/28/10
f 17/4/12 30/3/12 29/46/12 18/41/12
f 19/15/21 32/14/21 31/50/21 20/55/21
f 25/56/22 34/57/22 33/6/22 26/23/22
f 3/27/23 6/26/23 20/8/23 24/7/23
